<?xml version="1.0" encoding="utf-8"?>
<svg xmlns="http://www.w3.org/2000/svg" xmlns:xlink="http://www.w3.org/1999/xlink" width="600" height="400" viewBox="0 0 2400 1600">
<defs>
  <clipPath id="clip230">
    <rect x="0" y="0" width="2400" height="1600"/>
  </clipPath>
</defs>
<path clip-path="url(#clip230)" d="
M0 1600 L2400 1600 L2400 0 L0 0  Z
  " fill="#ffffff" fill-rule="evenodd" fill-opacity="1"/>
<defs>
  <clipPath id="clip231">
    <rect x="480" y="0" width="1681" height="1600"/>
  </clipPath>
</defs>
<path clip-path="url(#clip230)" d="
M171.594 1484.62 L2352.76 1484.62 L2352.76 47.2441 L171.594 47.2441  Z
  " fill="#ffffff" fill-rule="evenodd" fill-opacity="1"/>
<defs>
  <clipPath id="clip232">
    <rect x="171" y="47" width="2182" height="1438"/>
  </clipPath>
</defs>
<polyline clip-path="url(#clip232)" style="stroke:#000000; stroke-width:2; stroke-opacity:0.1; fill:none" points="
  513.921,1484.62 513.921,47.2441 
  "/>
<polyline clip-path="url(#clip232)" style="stroke:#000000; stroke-width:2; stroke-opacity:0.1; fill:none" points="
  888.048,1484.62 888.048,47.2441 
  "/>
<polyline clip-path="url(#clip232)" style="stroke:#000000; stroke-width:2; stroke-opacity:0.1; fill:none" points="
  1262.18,1484.62 1262.18,47.2441 
  "/>
<polyline clip-path="url(#clip232)" style="stroke:#000000; stroke-width:2; stroke-opacity:0.1; fill:none" points="
  1636.3,1484.62 1636.3,47.2441 
  "/>
<polyline clip-path="url(#clip232)" style="stroke:#000000; stroke-width:2; stroke-opacity:0.1; fill:none" points="
  2010.43,1484.62 2010.43,47.2441 
  "/>
<polyline clip-path="url(#clip230)" style="stroke:#000000; stroke-width:4; stroke-opacity:1; fill:none" points="
  171.594,1484.62 2352.76,1484.62 
  "/>
<polyline clip-path="url(#clip230)" style="stroke:#000000; stroke-width:4; stroke-opacity:1; fill:none" points="
  513.921,1484.62 513.921,1467.37 
  "/>
<polyline clip-path="url(#clip230)" style="stroke:#000000; stroke-width:4; stroke-opacity:1; fill:none" points="
  888.048,1484.62 888.048,1467.37 
  "/>
<polyline clip-path="url(#clip230)" style="stroke:#000000; stroke-width:4; stroke-opacity:1; fill:none" points="
  1262.18,1484.62 1262.18,1467.37 
  "/>
<polyline clip-path="url(#clip230)" style="stroke:#000000; stroke-width:4; stroke-opacity:1; fill:none" points="
  1636.3,1484.62 1636.3,1467.37 
  "/>
<polyline clip-path="url(#clip230)" style="stroke:#000000; stroke-width:4; stroke-opacity:1; fill:none" points="
  2010.43,1484.62 2010.43,1467.37 
  "/>
<g clip-path="url(#clip230)">
<text style="fill:#000000; fill-opacity:1; font-family:Book Antiqua,Palatino,Palatino Linotype,Palatino LT STD,Georgia,serif; font-size:50px; text-anchor:middle;" transform="rotate(0, 513.921, 1545.82)" x="513.921" y="1545.82">−4</text>
</g>
<g clip-path="url(#clip230)">
<text style="fill:#000000; fill-opacity:1; font-family:Book Antiqua,Palatino,Palatino Linotype,Palatino LT STD,Georgia,serif; font-size:50px; text-anchor:middle;" transform="rotate(0, 888.048, 1545.82)" x="888.048" y="1545.82">−2</text>
</g>
<g clip-path="url(#clip230)">
<text style="fill:#000000; fill-opacity:1; font-family:Book Antiqua,Palatino,Palatino Linotype,Palatino LT STD,Georgia,serif; font-size:50px; text-anchor:middle;" transform="rotate(0, 1262.18, 1545.82)" x="1262.18" y="1545.82">0</text>
</g>
<g clip-path="url(#clip230)">
<text style="fill:#000000; fill-opacity:1; font-family:Book Antiqua,Palatino,Palatino Linotype,Palatino LT STD,Georgia,serif; font-size:50px; text-anchor:middle;" transform="rotate(0, 1636.3, 1545.82)" x="1636.3" y="1545.82">2</text>
</g>
<g clip-path="url(#clip230)">
<text style="fill:#000000; fill-opacity:1; font-family:Book Antiqua,Palatino,Palatino Linotype,Palatino LT STD,Georgia,serif; font-size:50px; text-anchor:middle;" transform="rotate(0, 2010.43, 1545.82)" x="2010.43" y="1545.82">4</text>
</g>
<polyline clip-path="url(#clip232)" style="stroke:#000000; stroke-width:2; stroke-opacity:0.1; fill:none" points="
  171.594,1320.66 2352.76,1320.66 
  "/>
<polyline clip-path="url(#clip232)" style="stroke:#000000; stroke-width:2; stroke-opacity:0.1; fill:none" points="
  171.594,1012.48 2352.76,1012.48 
  "/>
<polyline clip-path="url(#clip232)" style="stroke:#000000; stroke-width:2; stroke-opacity:0.1; fill:none" points="
  171.594,704.293 2352.76,704.293 
  "/>
<polyline clip-path="url(#clip232)" style="stroke:#000000; stroke-width:2; stroke-opacity:0.1; fill:none" points="
  171.594,396.109 2352.76,396.109 
  "/>
<polyline clip-path="url(#clip232)" style="stroke:#000000; stroke-width:2; stroke-opacity:0.1; fill:none" points="
  171.594,87.9245 2352.76,87.9245 
  "/>
<polyline clip-path="url(#clip230)" style="stroke:#000000; stroke-width:4; stroke-opacity:1; fill:none" points="
  171.594,1484.62 171.594,47.2441 
  "/>
<polyline clip-path="url(#clip230)" style="stroke:#000000; stroke-width:4; stroke-opacity:1; fill:none" points="
  171.594,1320.66 197.768,1320.66 
  "/>
<polyline clip-path="url(#clip230)" style="stroke:#000000; stroke-width:4; stroke-opacity:1; fill:none" points="
  171.594,1012.48 197.768,1012.48 
  "/>
<polyline clip-path="url(#clip230)" style="stroke:#000000; stroke-width:4; stroke-opacity:1; fill:none" points="
  171.594,704.293 197.768,704.293 
  "/>
<polyline clip-path="url(#clip230)" style="stroke:#000000; stroke-width:4; stroke-opacity:1; fill:none" points="
  171.594,396.109 197.768,396.109 
  "/>
<polyline clip-path="url(#clip230)" style="stroke:#000000; stroke-width:4; stroke-opacity:1; fill:none" points="
  171.594,87.9245 197.768,87.9245 
  "/>
<g clip-path="url(#clip230)">
<text style="fill:#000000; fill-opacity:1; font-family:Book Antiqua,Palatino,Palatino Linotype,Palatino LT STD,Georgia,serif; font-size:50px; text-anchor:end;" transform="rotate(0, 135.594, 1338.16)" x="135.594" y="1338.16">−5.0</text>
</g>
<g clip-path="url(#clip230)">
<text style="fill:#000000; fill-opacity:1; font-family:Book Antiqua,Palatino,Palatino Linotype,Palatino LT STD,Georgia,serif; font-size:50px; text-anchor:end;" transform="rotate(0, 135.594, 1029.98)" x="135.594" y="1029.98">−2.5</text>
</g>
<g clip-path="url(#clip230)">
<text style="fill:#000000; fill-opacity:1; font-family:Book Antiqua,Palatino,Palatino Linotype,Palatino LT STD,Georgia,serif; font-size:50px; text-anchor:end;" transform="rotate(0, 135.594, 721.793)" x="135.594" y="721.793">0.0</text>
</g>
<g clip-path="url(#clip230)">
<text style="fill:#000000; fill-opacity:1; font-family:Book Antiqua,Palatino,Palatino Linotype,Palatino LT STD,Georgia,serif; font-size:50px; text-anchor:end;" transform="rotate(0, 135.594, 413.609)" x="135.594" y="413.609">2.5</text>
</g>
<g clip-path="url(#clip230)">
<text style="fill:#000000; fill-opacity:1; font-family:Book Antiqua,Palatino,Palatino Linotype,Palatino LT STD,Georgia,serif; font-size:50px; text-anchor:end;" transform="rotate(0, 135.594, 105.424)" x="135.594" y="105.424">5.0</text>
</g>
<polyline clip-path="url(#clip232)" style="stroke:#009af9; stroke-width:4; stroke-opacity:1; fill:none" points="
  233.325,1443.94 235.196,1443.94 237.066,1443.94 238.937,1443.94 240.808,1443.94 242.678,1443.94 244.549,1443.94 246.42,1443.94 248.29,1443.94 250.161,1443.94 
  252.032,1443.94 253.902,1443.94 255.773,1443.94 257.643,1443.94 259.514,1443.94 261.385,1443.94 263.255,1443.94 265.126,1443.94 266.997,1443.94 268.867,1443.94 
  270.738,1443.94 272.609,1443.94 274.479,1443.94 276.35,1443.94 278.22,1443.94 280.091,1443.94 281.962,1443.94 283.832,1443.94 285.703,1443.94 287.574,1443.94 
  289.444,1443.94 291.315,1443.94 293.186,1443.94 295.056,1443.94 296.927,1443.94 298.797,1443.94 300.668,1443.94 302.539,1443.94 304.409,1443.94 306.28,1443.94 
  308.151,1443.94 310.021,1443.94 311.892,1443.94 313.763,1443.94 315.633,1443.94 317.504,1443.94 319.374,1443.94 321.245,1443.94 323.116,1443.94 324.986,1443.94 
  
  "/>
<polyline clip-path="url(#clip232)" style="stroke:#009af9; stroke-width:4; stroke-opacity:1; fill:none" points="
  326.857,1320.66 328.728,1320.66 330.598,1320.66 332.469,1320.66 334.34,1320.66 336.21,1320.66 338.081,1320.66 339.951,1320.66 341.822,1320.66 343.693,1320.66 
  345.563,1320.66 347.434,1320.66 349.305,1320.66 351.175,1320.66 353.046,1320.66 354.917,1320.66 356.787,1320.66 358.658,1320.66 360.528,1320.66 362.399,1320.66 
  364.27,1320.66 366.14,1320.66 368.011,1320.66 369.882,1320.66 371.752,1320.66 373.623,1320.66 375.494,1320.66 377.364,1320.66 379.235,1320.66 381.105,1320.66 
  382.976,1320.66 384.847,1320.66 386.717,1320.66 388.588,1320.66 390.459,1320.66 392.329,1320.66 394.2,1320.66 396.071,1320.66 397.941,1320.66 399.812,1320.66 
  401.682,1320.66 403.553,1320.66 405.424,1320.66 407.294,1320.66 409.165,1320.66 411.036,1320.66 412.906,1320.66 414.777,1320.66 416.648,1320.66 418.518,1320.66 
  420.389,1320.66 422.259,1320.66 424.13,1320.66 426.001,1320.66 427.871,1320.66 429.742,1320.66 431.613,1320.66 433.483,1320.66 435.354,1320.66 437.225,1320.66 
  439.095,1320.66 440.966,1320.66 442.836,1320.66 444.707,1320.66 446.578,1320.66 448.448,1320.66 450.319,1320.66 452.19,1320.66 454.06,1320.66 455.931,1320.66 
  457.802,1320.66 459.672,1320.66 461.543,1320.66 463.413,1320.66 465.284,1320.66 467.155,1320.66 469.025,1320.66 470.896,1320.66 472.767,1320.66 474.637,1320.66 
  476.508,1320.66 478.379,1320.66 480.249,1320.66 482.12,1320.66 483.99,1320.66 485.861,1320.66 487.732,1320.66 489.602,1320.66 491.473,1320.66 493.344,1320.66 
  495.214,1320.66 497.085,1320.66 498.956,1320.66 500.826,1320.66 502.697,1320.66 504.567,1320.66 506.438,1320.66 508.309,1320.66 510.179,1320.66 512.05,1320.66 
  
  "/>
<polyline clip-path="url(#clip232)" style="stroke:#009af9; stroke-width:4; stroke-opacity:1; fill:none" points="
  513.921,1197.39 515.791,1197.39 517.662,1197.39 519.533,1197.39 521.403,1197.39 523.274,1197.39 525.144,1197.39 527.015,1197.39 528.886,1197.39 530.756,1197.39 
  532.627,1197.39 534.498,1197.39 536.368,1197.39 538.239,1197.39 540.11,1197.39 541.98,1197.39 543.851,1197.39 545.721,1197.39 547.592,1197.39 549.463,1197.39 
  551.333,1197.39 553.204,1197.39 555.075,1197.39 556.945,1197.39 558.816,1197.39 560.687,1197.39 562.557,1197.39 564.428,1197.39 566.298,1197.39 568.169,1197.39 
  570.04,1197.39 571.91,1197.39 573.781,1197.39 575.652,1197.39 577.522,1197.39 579.393,1197.39 581.264,1197.39 583.134,1197.39 585.005,1197.39 586.875,1197.39 
  588.746,1197.39 590.617,1197.39 592.487,1197.39 594.358,1197.39 596.229,1197.39 598.099,1197.39 599.97,1197.39 601.841,1197.39 603.711,1197.39 605.582,1197.39 
  607.452,1197.39 609.323,1197.39 611.194,1197.39 613.064,1197.39 614.935,1197.39 616.806,1197.39 618.676,1197.39 620.547,1197.39 622.418,1197.39 624.288,1197.39 
  626.159,1197.39 628.029,1197.39 629.9,1197.39 631.771,1197.39 633.641,1197.39 635.512,1197.39 637.383,1197.39 639.253,1197.39 641.124,1197.39 642.995,1197.39 
  644.865,1197.39 646.736,1197.39 648.606,1197.39 650.477,1197.39 652.348,1197.39 654.218,1197.39 656.089,1197.39 657.96,1197.39 659.83,1197.39 661.701,1197.39 
  663.572,1197.39 665.442,1197.39 667.313,1197.39 669.183,1197.39 671.054,1197.39 672.925,1197.39 674.795,1197.39 676.666,1197.39 678.537,1197.39 680.407,1197.39 
  682.278,1197.39 684.148,1197.39 686.019,1197.39 687.89,1197.39 689.76,1197.39 691.631,1197.39 693.502,1197.39 695.372,1197.39 697.243,1197.39 699.114,1197.39 
  
  "/>
<polyline clip-path="url(#clip232)" style="stroke:#009af9; stroke-width:4; stroke-opacity:1; fill:none" points="
  700.984,1074.11 702.855,1074.11 704.725,1074.11 706.596,1074.11 708.467,1074.11 710.337,1074.11 712.208,1074.11 714.079,1074.11 715.949,1074.11 717.82,1074.11 
  719.691,1074.11 721.561,1074.11 723.432,1074.11 725.302,1074.11 727.173,1074.11 729.044,1074.11 730.914,1074.11 732.785,1074.11 734.656,1074.11 736.526,1074.11 
  738.397,1074.11 740.268,1074.11 742.138,1074.11 744.009,1074.11 745.879,1074.11 747.75,1074.11 749.621,1074.11 751.491,1074.11 753.362,1074.11 755.233,1074.11 
  757.103,1074.11 758.974,1074.11 760.845,1074.11 762.715,1074.11 764.586,1074.11 766.456,1074.11 768.327,1074.11 770.198,1074.11 772.068,1074.11 773.939,1074.11 
  775.81,1074.11 777.68,1074.11 779.551,1074.11 781.422,1074.11 783.292,1074.11 785.163,1074.11 787.033,1074.11 788.904,1074.11 790.775,1074.11 792.645,1074.11 
  794.516,1074.11 796.387,1074.11 798.257,1074.11 800.128,1074.11 801.999,1074.11 803.869,1074.11 805.74,1074.11 807.61,1074.11 809.481,1074.11 811.352,1074.11 
  813.222,1074.11 815.093,1074.11 816.964,1074.11 818.834,1074.11 820.705,1074.11 822.576,1074.11 824.446,1074.11 826.317,1074.11 828.187,1074.11 830.058,1074.11 
  831.929,1074.11 833.799,1074.11 835.67,1074.11 837.541,1074.11 839.411,1074.11 841.282,1074.11 843.153,1074.11 845.023,1074.11 846.894,1074.11 848.764,1074.11 
  850.635,1074.11 852.506,1074.11 854.376,1074.11 856.247,1074.11 858.118,1074.11 859.988,1074.11 861.859,1074.11 863.73,1074.11 865.6,1074.11 867.471,1074.11 
  869.341,1074.11 871.212,1074.11 873.083,1074.11 874.953,1074.11 876.824,1074.11 878.695,1074.11 880.565,1074.11 882.436,1074.11 884.307,1074.11 886.177,1074.11 
  
  "/>
<polyline clip-path="url(#clip232)" style="stroke:#009af9; stroke-width:4; stroke-opacity:1; fill:none" points="
  888.048,950.841 889.918,950.841 891.789,950.841 893.66,950.841 895.53,950.841 897.401,950.841 899.272,950.841 901.142,950.841 903.013,950.841 904.884,950.841 
  906.754,950.841 908.625,950.841 910.495,950.841 912.366,950.841 914.237,950.841 916.107,950.841 917.978,950.841 919.849,950.841 921.719,950.841 923.59,950.841 
  925.461,950.841 927.331,950.841 929.202,950.841 931.072,950.841 932.943,950.841 934.814,950.841 936.684,950.841 938.555,950.841 940.426,950.841 942.296,950.841 
  944.167,950.841 946.038,950.841 947.908,950.841 949.779,950.841 951.649,950.841 953.52,950.841 955.391,950.841 957.261,950.841 959.132,950.841 961.003,950.841 
  962.873,950.841 964.744,950.841 966.615,950.841 968.485,950.841 970.356,950.841 972.226,950.841 974.097,950.841 975.968,950.841 977.838,950.841 979.709,950.841 
  981.58,950.841 983.45,950.841 985.321,950.841 987.192,950.841 989.062,950.841 990.933,950.841 992.803,950.841 994.674,950.841 996.545,950.841 998.415,950.841 
  1000.29,950.841 1002.16,950.841 1004.03,950.841 1005.9,950.841 1007.77,950.841 1009.64,950.841 1011.51,950.841 1013.38,950.841 1015.25,950.841 1017.12,950.841 
  1018.99,950.841 1020.86,950.841 1022.73,950.841 1024.6,950.841 1026.47,950.841 1028.35,950.841 1030.22,950.841 1032.09,950.841 1033.96,950.841 1035.83,950.841 
  1037.7,950.841 1039.57,950.841 1041.44,950.841 1043.31,950.841 1045.18,950.841 1047.05,950.841 1048.92,950.841 1050.79,950.841 1052.66,950.841 1054.53,950.841 
  1056.41,950.841 1058.28,950.841 1060.15,950.841 1062.02,950.841 1063.89,950.841 1065.76,950.841 1067.63,950.841 1069.5,950.841 1071.37,950.841 1073.24,950.841 
  
  "/>
<polyline clip-path="url(#clip232)" style="stroke:#009af9; stroke-width:4; stroke-opacity:1; fill:none" points="
  1075.11,827.567 1076.98,827.567 1078.85,827.567 1080.72,827.567 1082.59,827.567 1084.46,827.567 1086.34,827.567 1088.21,827.567 1090.08,827.567 1091.95,827.567 
  1093.82,827.567 1095.69,827.567 1097.56,827.567 1099.43,827.567 1101.3,827.567 1103.17,827.567 1105.04,827.567 1106.91,827.567 1108.78,827.567 1110.65,827.567 
  1112.52,827.567 1114.39,827.567 1116.27,827.567 1118.14,827.567 1120.01,827.567 1121.88,827.567 1123.75,827.567 1125.62,827.567 1127.49,827.567 1129.36,827.567 
  1131.23,827.567 1133.1,827.567 1134.97,827.567 1136.84,827.567 1138.71,827.567 1140.58,827.567 1142.45,827.567 1144.32,827.567 1146.2,827.567 1148.07,827.567 
  1149.94,827.567 1151.81,827.567 1153.68,827.567 1155.55,827.567 1157.42,827.567 1159.29,827.567 1161.16,827.567 1163.03,827.567 1164.9,827.567 1166.77,827.567 
  1168.64,827.567 1170.51,827.567 1172.38,827.567 1174.26,827.567 1176.13,827.567 1178,827.567 1179.87,827.567 1181.74,827.567 1183.61,827.567 1185.48,827.567 
  1187.35,827.567 1189.22,827.567 1191.09,827.567 1192.96,827.567 1194.83,827.567 1196.7,827.567 1198.57,827.567 1200.44,827.567 1202.31,827.567 1204.19,827.567 
  1206.06,827.567 1207.93,827.567 1209.8,827.567 1211.67,827.567 1213.54,827.567 1215.41,827.567 1217.28,827.567 1219.15,827.567 1221.02,827.567 1222.89,827.567 
  1224.76,827.567 1226.63,827.567 1228.5,827.567 1230.37,827.567 1232.24,827.567 1234.12,827.567 1235.99,827.567 1237.86,827.567 1239.73,827.567 1241.6,827.567 
  1243.47,827.567 1245.34,827.567 1247.21,827.567 1249.08,827.567 1250.95,827.567 1252.82,827.567 1254.69,827.567 1256.56,827.567 1258.43,827.567 1260.3,827.567 
  
  "/>
<polyline clip-path="url(#clip232)" style="stroke:#009af9; stroke-width:4; stroke-opacity:1; fill:none" points="
  1262.18,704.293 1264.05,704.293 1265.92,704.293 1267.79,704.293 1269.66,704.293 1271.53,704.293 1273.4,704.293 1275.27,704.293 1277.14,704.293 1279.01,704.293 
  1280.88,704.293 1282.75,704.293 1284.62,704.293 1286.49,704.293 1288.36,704.293 1290.23,704.293 1292.11,704.293 1293.98,704.293 1295.85,704.293 1297.72,704.293 
  1299.59,704.293 1301.46,704.293 1303.33,704.293 1305.2,704.293 1307.07,704.293 1308.94,704.293 1310.81,704.293 1312.68,704.293 1314.55,704.293 1316.42,704.293 
  1318.29,704.293 1320.16,704.293 1322.04,704.293 1323.91,704.293 1325.78,704.293 1327.65,704.293 1329.52,704.293 1331.39,704.293 1333.26,704.293 1335.13,704.293 
  1337,704.293 1338.87,704.293 1340.74,704.293 1342.61,704.293 1344.48,704.293 1346.35,704.293 1348.22,704.293 1350.09,704.293 1351.97,704.293 1353.84,704.293 
  1355.71,704.293 1357.58,704.293 1359.45,704.293 1361.32,704.293 1363.19,704.293 1365.06,704.293 1366.93,704.293 1368.8,704.293 1370.67,704.293 1372.54,704.293 
  1374.41,704.293 1376.28,704.293 1378.15,704.293 1380.03,704.293 1381.9,704.293 1383.77,704.293 1385.64,704.293 1387.51,704.293 1389.38,704.293 1391.25,704.293 
  1393.12,704.293 1394.99,704.293 1396.86,704.293 1398.73,704.293 1400.6,704.293 1402.47,704.293 1404.34,704.293 1406.21,704.293 1408.08,704.293 1409.96,704.293 
  1411.83,704.293 1413.7,704.293 1415.57,704.293 1417.44,704.293 1419.31,704.293 1421.18,704.293 1423.05,704.293 1424.92,704.293 1426.79,704.293 1428.66,704.293 
  1430.53,704.293 1432.4,704.293 1434.27,704.293 1436.14,704.293 1438.01,704.293 1439.89,704.293 1441.76,704.293 1443.63,704.293 1445.5,704.293 1447.37,704.293 
  
  "/>
<polyline clip-path="url(#clip232)" style="stroke:#009af9; stroke-width:4; stroke-opacity:1; fill:none" points="
  1449.24,581.02 1451.11,581.02 1452.98,581.02 1454.85,581.02 1456.72,581.02 1458.59,581.02 1460.46,581.02 1462.33,581.02 1464.2,581.02 1466.07,581.02 
  1467.95,581.02 1469.82,581.02 1471.69,581.02 1473.56,581.02 1475.43,581.02 1477.3,581.02 1479.17,581.02 1481.04,581.02 1482.91,581.02 1484.78,581.02 
  1486.65,581.02 1488.52,581.02 1490.39,581.02 1492.26,581.02 1494.13,581.02 1496,581.02 1497.88,581.02 1499.75,581.02 1501.62,581.02 1503.49,581.02 
  1505.36,581.02 1507.23,581.02 1509.1,581.02 1510.97,581.02 1512.84,581.02 1514.71,581.02 1516.58,581.02 1518.45,581.02 1520.32,581.02 1522.19,581.02 
  1524.06,581.02 1525.93,581.02 1527.81,581.02 1529.68,581.02 1531.55,581.02 1533.42,581.02 1535.29,581.02 1537.16,581.02 1539.03,581.02 1540.9,581.02 
  1542.77,581.02 1544.64,581.02 1546.51,581.02 1548.38,581.02 1550.25,581.02 1552.12,581.02 1553.99,581.02 1555.86,581.02 1557.74,581.02 1559.61,581.02 
  1561.48,581.02 1563.35,581.02 1565.22,581.02 1567.09,581.02 1568.96,581.02 1570.83,581.02 1572.7,581.02 1574.57,581.02 1576.44,581.02 1578.31,581.02 
  1580.18,581.02 1582.05,581.02 1583.92,581.02 1585.8,581.02 1587.67,581.02 1589.54,581.02 1591.41,581.02 1593.28,581.02 1595.15,581.02 1597.02,581.02 
  1598.89,581.02 1600.76,581.02 1602.63,581.02 1604.5,581.02 1606.37,581.02 1608.24,581.02 1610.11,581.02 1611.98,581.02 1613.85,581.02 1615.73,581.02 
  1617.6,581.02 1619.47,581.02 1621.34,581.02 1623.21,581.02 1625.08,581.02 1626.95,581.02 1628.82,581.02 1630.69,581.02 1632.56,581.02 1634.43,581.02 
  
  "/>
<polyline clip-path="url(#clip232)" style="stroke:#009af9; stroke-width:4; stroke-opacity:1; fill:none" points="
  1636.3,457.746 1638.17,457.746 1640.04,457.746 1641.91,457.746 1643.78,457.746 1645.66,457.746 1647.53,457.746 1649.4,457.746 1651.27,457.746 1653.14,457.746 
  1655.01,457.746 1656.88,457.746 1658.75,457.746 1660.62,457.746 1662.49,457.746 1664.36,457.746 1666.23,457.746 1668.1,457.746 1669.97,457.746 1671.84,457.746 
  1673.71,457.746 1675.59,457.746 1677.46,457.746 1679.33,457.746 1681.2,457.746 1683.07,457.746 1684.94,457.746 1686.81,457.746 1688.68,457.746 1690.55,457.746 
  1692.42,457.746 1694.29,457.746 1696.16,457.746 1698.03,457.746 1699.9,457.746 1701.77,457.746 1703.65,457.746 1705.52,457.746 1707.39,457.746 1709.26,457.746 
  1711.13,457.746 1713,457.746 1714.87,457.746 1716.74,457.746 1718.61,457.746 1720.48,457.746 1722.35,457.746 1724.22,457.746 1726.09,457.746 1727.96,457.746 
  1729.83,457.746 1731.7,457.746 1733.58,457.746 1735.45,457.746 1737.32,457.746 1739.19,457.746 1741.06,457.746 1742.93,457.746 1744.8,457.746 1746.67,457.746 
  1748.54,457.746 1750.41,457.746 1752.28,457.746 1754.15,457.746 1756.02,457.746 1757.89,457.746 1759.76,457.746 1761.63,457.746 1763.51,457.746 1765.38,457.746 
  1767.25,457.746 1769.12,457.746 1770.99,457.746 1772.86,457.746 1774.73,457.746 1776.6,457.746 1778.47,457.746 1780.34,457.746 1782.21,457.746 1784.08,457.746 
  1785.95,457.746 1787.82,457.746 1789.69,457.746 1791.57,457.746 1793.44,457.746 1795.31,457.746 1797.18,457.746 1799.05,457.746 1800.92,457.746 1802.79,457.746 
  1804.66,457.746 1806.53,457.746 1808.4,457.746 1810.27,457.746 1812.14,457.746 1814.01,457.746 1815.88,457.746 1817.75,457.746 1819.62,457.746 1821.5,457.746 
  
  "/>
<polyline clip-path="url(#clip232)" style="stroke:#009af9; stroke-width:4; stroke-opacity:1; fill:none" points="
  1823.37,334.472 1825.24,334.472 1827.11,334.472 1828.98,334.472 1830.85,334.472 1832.72,334.472 1834.59,334.472 1836.46,334.472 1838.33,334.472 1840.2,334.472 
  1842.07,334.472 1843.94,334.472 1845.81,334.472 1847.68,334.472 1849.55,334.472 1851.43,334.472 1853.3,334.472 1855.17,334.472 1857.04,334.472 1858.91,334.472 
  1860.78,334.472 1862.65,334.472 1864.52,334.472 1866.39,334.472 1868.26,334.472 1870.13,334.472 1872,334.472 1873.87,334.472 1875.74,334.472 1877.61,334.472 
  1879.48,334.472 1881.36,334.472 1883.23,334.472 1885.1,334.472 1886.97,334.472 1888.84,334.472 1890.71,334.472 1892.58,334.472 1894.45,334.472 1896.32,334.472 
  1898.19,334.472 1900.06,334.472 1901.93,334.472 1903.8,334.472 1905.67,334.472 1907.54,334.472 1909.42,334.472 1911.29,334.472 1913.16,334.472 1915.03,334.472 
  1916.9,334.472 1918.77,334.472 1920.64,334.472 1922.51,334.472 1924.38,334.472 1926.25,334.472 1928.12,334.472 1929.99,334.472 1931.86,334.472 1933.73,334.472 
  1935.6,334.472 1937.47,334.472 1939.35,334.472 1941.22,334.472 1943.09,334.472 1944.96,334.472 1946.83,334.472 1948.7,334.472 1950.57,334.472 1952.44,334.472 
  1954.31,334.472 1956.18,334.472 1958.05,334.472 1959.92,334.472 1961.79,334.472 1963.66,334.472 1965.53,334.472 1967.4,334.472 1969.28,334.472 1971.15,334.472 
  1973.02,334.472 1974.89,334.472 1976.76,334.472 1978.63,334.472 1980.5,334.472 1982.37,334.472 1984.24,334.472 1986.11,334.472 1987.98,334.472 1989.85,334.472 
  1991.72,334.472 1993.59,334.472 1995.46,334.472 1997.34,334.472 1999.21,334.472 2001.08,334.472 2002.95,334.472 2004.82,334.472 2006.69,334.472 2008.56,334.472 
  
  "/>
<polyline clip-path="url(#clip232)" style="stroke:#009af9; stroke-width:4; stroke-opacity:1; fill:none" points="
  2010.43,211.198 2012.3,211.198 2014.17,211.198 2016.04,211.198 2017.91,211.198 2019.78,211.198 2021.65,211.198 2023.52,211.198 2025.39,211.198 2027.27,211.198 
  2029.14,211.198 2031.01,211.198 2032.88,211.198 2034.75,211.198 2036.62,211.198 2038.49,211.198 2040.36,211.198 2042.23,211.198 2044.1,211.198 2045.97,211.198 
  2047.84,211.198 2049.71,211.198 2051.58,211.198 2053.45,211.198 2055.32,211.198 2057.2,211.198 2059.07,211.198 2060.94,211.198 2062.81,211.198 2064.68,211.198 
  2066.55,211.198 2068.42,211.198 2070.29,211.198 2072.16,211.198 2074.03,211.198 2075.9,211.198 2077.77,211.198 2079.64,211.198 2081.51,211.198 2083.38,211.198 
  2085.25,211.198 2087.13,211.198 2089,211.198 2090.87,211.198 2092.74,211.198 2094.61,211.198 2096.48,211.198 2098.35,211.198 2100.22,211.198 2102.09,211.198 
  2103.96,211.198 2105.83,211.198 2107.7,211.198 2109.57,211.198 2111.44,211.198 2113.31,211.198 2115.19,211.198 2117.06,211.198 2118.93,211.198 2120.8,211.198 
  2122.67,211.198 2124.54,211.198 2126.41,211.198 2128.28,211.198 2130.15,211.198 2132.02,211.198 2133.89,211.198 2135.76,211.198 2137.63,211.198 2139.5,211.198 
  2141.37,211.198 2143.24,211.198 2145.12,211.198 2146.99,211.198 2148.86,211.198 2150.73,211.198 2152.6,211.198 2154.47,211.198 2156.34,211.198 2158.21,211.198 
  2160.08,211.198 2161.95,211.198 2163.82,211.198 2165.69,211.198 2167.56,211.198 2169.43,211.198 2171.3,211.198 2173.17,211.198 2175.05,211.198 2176.92,211.198 
  2178.79,211.198 2180.66,211.198 2182.53,211.198 2184.4,211.198 2186.27,211.198 2188.14,211.198 2190.01,211.198 2191.88,211.198 2193.75,211.198 2195.62,211.198 
  
  "/>
<polyline clip-path="url(#clip232)" style="stroke:#009af9; stroke-width:4; stroke-opacity:1; fill:none" points="
  2197.49,87.9245 2199.36,87.9245 2201.23,87.9245 2203.11,87.9245 2204.98,87.9245 2206.85,87.9245 2208.72,87.9245 2210.59,87.9245 2212.46,87.9245 2214.33,87.9245 
  2216.2,87.9245 2218.07,87.9245 2219.94,87.9245 2221.81,87.9245 2223.68,87.9245 2225.55,87.9245 2227.42,87.9245 2229.29,87.9245 2231.16,87.9245 2233.04,87.9245 
  2234.91,87.9245 2236.78,87.9245 2238.65,87.9245 2240.52,87.9245 2242.39,87.9245 2244.26,87.9245 2246.13,87.9245 2248,87.9245 2249.87,87.9245 2251.74,87.9245 
  2253.61,87.9245 2255.48,87.9245 2257.35,87.9245 2259.22,87.9245 2261.09,87.9245 2262.97,87.9245 2264.84,87.9245 2266.71,87.9245 2268.58,87.9245 2270.45,87.9245 
  2272.32,87.9245 2274.19,87.9245 2276.06,87.9245 2277.93,87.9245 2279.8,87.9245 2281.67,87.9245 2283.54,87.9245 2285.41,87.9245 2287.28,87.9245 2289.15,87.9245 
  2291.02,87.9245 
  "/>
<polyline clip-path="url(#clip232)" style="stroke:#009af9; stroke-width:4; stroke-opacity:1; fill:none" stroke-dasharray="16, 10" points="
  325.922,1443.94 325.922,1320.66 512.985,1320.66 512.985,1197.39 700.049,1197.39 700.049,1074.11 887.113,1074.11 887.113,950.841 1074.18,950.841 1074.18,827.567 
  1261.24,827.567 1261.24,704.293 1448.3,704.293 1448.3,581.02 1635.37,581.02 1635.37,457.746 1822.43,457.746 1822.43,334.472 2009.49,334.472 2009.49,211.198 
  2196.56,211.198 2196.56,87.9245 
  "/>
<circle clip-path="url(#clip232)" cx="325.922" cy="1443.94" r="14" fill="#ffffff" fill-rule="evenodd" fill-opacity="1" stroke="#009af9" stroke-opacity="1" stroke-width="3.2"/>
<circle clip-path="url(#clip232)" cx="512.985" cy="1320.66" r="14" fill="#ffffff" fill-rule="evenodd" fill-opacity="1" stroke="#009af9" stroke-opacity="1" stroke-width="3.2"/>
<circle clip-path="url(#clip232)" cx="700.049" cy="1197.39" r="14" fill="#ffffff" fill-rule="evenodd" fill-opacity="1" stroke="#009af9" stroke-opacity="1" stroke-width="3.2"/>
<circle clip-path="url(#clip232)" cx="887.113" cy="1074.11" r="14" fill="#ffffff" fill-rule="evenodd" fill-opacity="1" stroke="#009af9" stroke-opacity="1" stroke-width="3.2"/>
<circle clip-path="url(#clip232)" cx="1074.18" cy="950.841" r="14" fill="#ffffff" fill-rule="evenodd" fill-opacity="1" stroke="#009af9" stroke-opacity="1" stroke-width="3.2"/>
<circle clip-path="url(#clip232)" cx="1261.24" cy="827.567" r="14" fill="#ffffff" fill-rule="evenodd" fill-opacity="1" stroke="#009af9" stroke-opacity="1" stroke-width="3.2"/>
<circle clip-path="url(#clip232)" cx="1448.3" cy="704.293" r="14" fill="#ffffff" fill-rule="evenodd" fill-opacity="1" stroke="#009af9" stroke-opacity="1" stroke-width="3.2"/>
<circle clip-path="url(#clip232)" cx="1635.37" cy="581.02" r="14" fill="#ffffff" fill-rule="evenodd" fill-opacity="1" stroke="#009af9" stroke-opacity="1" stroke-width="3.2"/>
<circle clip-path="url(#clip232)" cx="1822.43" cy="457.746" r="14" fill="#ffffff" fill-rule="evenodd" fill-opacity="1" stroke="#009af9" stroke-opacity="1" stroke-width="3.2"/>
<circle clip-path="url(#clip232)" cx="2009.49" cy="334.472" r="14" fill="#ffffff" fill-rule="evenodd" fill-opacity="1" stroke="#009af9" stroke-opacity="1" stroke-width="3.2"/>
<circle clip-path="url(#clip232)" cx="2196.56" cy="211.198" r="14" fill="#ffffff" fill-rule="evenodd" fill-opacity="1" stroke="#009af9" stroke-opacity="1" stroke-width="3.2"/>
<circle clip-path="url(#clip232)" cx="325.922" cy="1320.66" r="14" fill="#009af9" fill-rule="evenodd" fill-opacity="1" stroke="#000000" stroke-opacity="1" stroke-width="0"/>
<circle clip-path="url(#clip232)" cx="512.985" cy="1197.39" r="14" fill="#009af9" fill-rule="evenodd" fill-opacity="1" stroke="#000000" stroke-opacity="1" stroke-width="0"/>
<circle clip-path="url(#clip232)" cx="700.049" cy="1074.11" r="14" fill="#009af9" fill-rule="evenodd" fill-opacity="1" stroke="#000000" stroke-opacity="1" stroke-width="0"/>
<circle clip-path="url(#clip232)" cx="887.113" cy="950.841" r="14" fill="#009af9" fill-rule="evenodd" fill-opacity="1" stroke="#000000" stroke-opacity="1" stroke-width="0"/>
<circle clip-path="url(#clip232)" cx="1074.18" cy="827.567" r="14" fill="#009af9" fill-rule="evenodd" fill-opacity="1" stroke="#000000" stroke-opacity="1" stroke-width="0"/>
<circle clip-path="url(#clip232)" cx="1261.24" cy="704.293" r="14" fill="#009af9" fill-rule="evenodd" fill-opacity="1" stroke="#000000" stroke-opacity="1" stroke-width="0"/>
<circle clip-path="url(#clip232)" cx="1448.3" cy="581.02" r="14" fill="#009af9" fill-rule="evenodd" fill-opacity="1" stroke="#000000" stroke-opacity="1" stroke-width="0"/>
<circle clip-path="url(#clip232)" cx="1635.37" cy="457.746" r="14" fill="#009af9" fill-rule="evenodd" fill-opacity="1" stroke="#000000" stroke-opacity="1" stroke-width="0"/>
<circle clip-path="url(#clip232)" cx="1822.43" cy="334.472" r="14" fill="#009af9" fill-rule="evenodd" fill-opacity="1" stroke="#000000" stroke-opacity="1" stroke-width="0"/>
<circle clip-path="url(#clip232)" cx="2009.49" cy="211.198" r="14" fill="#009af9" fill-rule="evenodd" fill-opacity="1" stroke="#000000" stroke-opacity="1" stroke-width="0"/>
<circle clip-path="url(#clip232)" cx="2196.56" cy="87.9245" r="14" fill="#009af9" fill-rule="evenodd" fill-opacity="1" stroke="#000000" stroke-opacity="1" stroke-width="0"/>
</svg>
